<svg width="28" height="23" viewBox="0 0 28 23" fill="none" xmlns="http://www.w3.org/2000/svg">
<path d="M2.66669 22.1673C2.13335 22.1673 1.66669 21.9673 1.26669 21.5673C0.866687 21.1673 0.666687 20.7007 0.666687 20.1673V2.83398C0.666687 2.30065 0.866687 1.83398 1.26669 1.43398C1.66669 1.03398 2.13335 0.833984 2.66669 0.833984H25.3334C25.8667 0.833984 26.3334 1.03398 26.7334 1.43398C27.1334 1.83398 27.3334 2.30065 27.3334 2.83398V20.1673C27.3334 20.7007 27.1334 21.1673 26.7334 21.5673C26.3334 21.9673 25.8667 22.1673 25.3334 22.1673H2.66669ZM14 12.1007L2.66669 4.66732V20.1673H25.3334V4.66732L14 12.1007ZM14 10.1007L25.2 2.83398H2.83335L14 10.1007ZM2.66669 4.66732V2.83398V20.1673V4.66732Z" fill="#1F1F1F"/>
</svg>
