<svg width="21" height="21" viewBox="0 0 21 21" fill="none" xmlns="http://www.w3.org/2000/svg">
<path d="M20.0306 18.9686L15.3366 14.2755C16.6971 12.6421 17.3755 10.547 17.2307 8.42618C17.0859 6.30531 16.129 4.32191 14.5591 2.88859C12.9892 1.45526 10.9272 0.68235 8.80191 0.73065C6.67666 0.77895 4.65184 1.64474 3.14867 3.14791C1.6455 4.65108 0.779713 6.6759 0.731413 8.80115C0.683113 10.9264 1.45602 12.9885 2.88935 14.5584C4.32268 16.1283 6.30607 17.0852 8.42694 17.23C10.5478 17.3748 12.6428 16.6963 14.2763 15.3358L18.9694 20.0299C19.0391 20.0995 19.1218 20.1548 19.2128 20.1925C19.3039 20.2302 19.4015 20.2497 19.5 20.2497C19.5985 20.2497 19.6961 20.2302 19.7872 20.1925C19.8782 20.1548 19.9609 20.0995 20.0306 20.0299C20.1003 19.9602 20.1556 19.8775 20.1933 19.7864C20.231 19.6954 20.2504 19.5978 20.2504 19.4992C20.2504 19.4007 20.231 19.3031 20.1933 19.2121C20.1556 19.121 20.1003 19.0383 20.0306 18.9686ZM2.25 8.99924C2.25 7.66421 2.64588 6.35917 3.38758 5.24914C4.12928 4.13911 5.18349 3.27394 6.41689 2.76305C7.65029 2.25216 9.00749 2.11849 10.3169 2.37894C11.6262 2.63939 12.829 3.28226 13.773 4.22627C14.717 5.17027 15.3599 6.37301 15.6203 7.68238C15.8808 8.99175 15.7471 10.3489 15.2362 11.5824C14.7253 12.8158 13.8601 13.87 12.7501 14.6117C11.6401 15.3534 10.335 15.7492 9 15.7492C7.2104 15.7473 5.49466 15.0355 4.22922 13.77C2.96378 12.5046 2.25199 10.7888 2.25 8.99924Z" fill="#1F1F1F" stroke="#1F1F1F"/>
</svg>
