<svg viewBox="0 0 33 32" fill="none" xmlns="http://www.w3.org/2000/svg">
<g clip-path="url(#clip0_128_513)">
<path d="M16.24 0C11.9975 0 7.92499 1.68675 4.92749 4.68625C1.9269 7.68694 0.240821 11.7565 0.23999 16C0.23999 20.2417 1.92749 24.3142 4.92749 27.3137C7.92499 30.3132 11.9975 32 16.24 32C20.4825 32 24.555 30.3132 27.5525 27.3137C30.5525 24.3142 32.24 20.2417 32.24 16C32.24 11.7583 30.5525 7.68575 27.5525 4.68625C24.555 1.68675 20.4825 0 16.24 0Z" fill="url(#paint0_linear_128_513)"/>
<path d="M7.48249 15.8311C12.1475 13.7991 15.2575 12.4593 16.8125 11.8121C21.2575 9.96381 22.18 9.64281 22.7825 9.63193C22.915 9.62981 23.21 9.66256 23.4025 9.81818C23.5625 9.94943 23.6075 10.1269 23.63 10.2516C23.65 10.3761 23.6775 10.6598 23.655 10.8813C23.415 13.4113 22.3725 19.5508 21.8425 22.3846C21.62 23.5836 21.1775 23.9856 20.75 24.0248C19.82 24.1103 19.115 23.4108 18.215 22.8211C16.8075 21.8978 16.0125 21.3233 14.645 20.4226C13.065 19.3816 14.09 18.8093 14.99 17.8743C15.225 17.6296 19.32 13.9058 19.3975 13.5681C19.4075 13.5258 19.4175 13.3683 19.3225 13.2853C19.23 13.2021 19.0925 13.2306 18.9925 13.2531C18.85 13.2851 16.6025 14.7721 12.2425 17.7138C11.605 18.1523 11.0275 18.3661 10.5075 18.3548C9.93749 18.3426 8.83749 18.0318 8.01999 17.7663C7.01999 17.4406 6.22249 17.2683 6.29249 16.7151C6.32749 16.4271 6.72499 16.1323 7.48249 15.8311Z" fill="white"/>
</g>
<defs>
<linearGradient id="paint0_linear_128_513" x1="1600.24" y1="0" x2="1600.24" y2="3200" gradientUnits="userSpaceOnUse">
<stop stop-color="#2AABEE"/>
<stop offset="1" stop-color="#229ED9"/>
</linearGradient>
<clipPath id="clip0_128_513">
<rect width="32" height="32" fill="white" transform="translate(0.23999)"/>
</clipPath>
</defs>
</svg>
