<svg viewBox="0 0 32 32" fill="none" xmlns="http://www.w3.org/2000/svg">
<g clip-path="url(#clip0_128_516)">
<path d="M0.921575 15.8081C0.920831 18.4967 1.62334 21.1219 2.95916 23.4359L0.793823 31.3418L8.88461 29.2204C11.1224 30.4387 13.6297 31.077 16.1776 31.0772H16.1843C24.5955 31.0772 31.4424 24.2327 31.446 15.8201C31.4476 11.7436 29.8615 7.91027 26.9797 5.0263C24.0985 2.14258 20.2666 0.553618 16.1837 0.551758C7.77156 0.551758 0.925172 7.39579 0.921699 15.8081" fill="url(#paint0_linear_128_516)"/>
<path d="M12.2351 9.19662C11.9392 8.53888 11.6277 8.52561 11.3463 8.51407C11.1159 8.50415 10.8524 8.5049 10.5892 8.5049C10.3258 8.5049 9.89776 8.604 9.53596 8.99904C9.17379 9.39445 8.15326 10.35 8.15326 12.2934C8.15326 14.237 9.56883 16.1152 9.76616 16.379C9.96374 16.6423 12.4989 20.7582 16.5141 22.3415C19.851 23.6574 20.5301 23.3957 21.2543 23.3297C21.9786 23.264 23.5915 22.3744 23.9206 21.452C24.2499 20.5297 24.2499 19.7391 24.1512 19.5739C24.0524 19.4093 23.789 19.3105 23.3939 19.113C22.9988 18.9154 21.0567 17.9598 20.6947 17.8279C20.3325 17.6962 20.0692 17.6305 19.8057 18.026C19.5423 18.4209 18.7858 19.3105 18.5552 19.5739C18.3249 19.838 18.0943 19.8708 17.6994 19.6733C17.3041 19.4751 16.032 19.0584 14.5226 17.7128C13.3483 16.6658 12.5555 15.3727 12.325 14.9772C12.0946 14.5823 12.3004 14.3682 12.4984 14.1714C12.6759 13.9944 12.8936 13.7101 13.0913 13.4795C13.2883 13.2488 13.354 13.0842 13.4857 12.8208C13.6176 12.5571 13.5516 12.3264 13.453 12.1288C13.354 11.9313 12.5864 9.97764 12.2351 9.19662Z" fill="white"/>
</g>
<defs>
<linearGradient id="paint0_linear_128_516" x1="1533.4" y1="3079.56" x2="1533.4" y2="0.551758" gradientUnits="userSpaceOnUse">
<stop stop-color="#1FAF38"/>
<stop offset="1" stop-color="#60D669"/>
</linearGradient>
<clipPath id="clip0_128_516">
<rect width="31.76" height="32" fill="white" transform="translate(0.23999)"/>
</clipPath>
</defs>
</svg>
