<svg version="1.1" xmlns="http://www.w3.org/2000/svg" xmlns:xlink="http://www.w3.org/1999/xlink">

    <symbol id="address"  viewBox="0 0 21 21" fill="none" xmlns="http://www.w3.org/2000/svg">
        <path d="M20 1L13.5 19C13.4561 19.0957 13.3857 19.1769 13.2971 19.2338C13.2084 19.2906 13.1053 19.3209 13 19.3209C12.8947 19.3209 12.7916 19.2906 12.703 19.2338C12.6143 19.1769 12.5439 19.0957 12.5 19L9.00001 12L2.00001 8.5C1.90427 8.45613 1.82314 8.38569 1.76626 8.29705C1.70938 8.20842 1.67914 8.10532 1.67914 8C1.67914 7.89468 1.70938 7.79158 1.76626 7.70295C1.82314 7.61431 1.90427 7.54387 2.00001 7.5L20 1Z" stroke="currentColor" stroke-width="2" stroke-linecap="round" stroke-linejoin="round"/>
    </symbol>

    <symbol id="wa"  viewBox="0 0 32 32" fill="none" xmlns="http://www.w3.org/2000/svg">
        <g clip-path="url(#clip0_128_516)">
            <path d="M0.921575 15.8081C0.920831 18.4967 1.62334 21.1219 2.95916 23.4359L0.793823 31.3418L8.88461 29.2204C11.1224 30.4387 13.6297 31.077 16.1776 31.0772H16.1843C24.5955 31.0772 31.4424 24.2327 31.446 15.8201C31.4476 11.7436 29.8615 7.91027 26.9797 5.0263C24.0985 2.14258 20.2666 0.553618 16.1837 0.551758C7.77156 0.551758 0.925172 7.39579 0.921699 15.8081" fill="#60d669"/>
            <path d="M12.2351 9.19662C11.9392 8.53888 11.6277 8.52561 11.3463 8.51407C11.1159 8.50415 10.8524 8.5049 10.5892 8.5049C10.3258 8.5049 9.89776 8.604 9.53596 8.99904C9.17379 9.39445 8.15326 10.35 8.15326 12.2934C8.15326 14.237 9.56883 16.1152 9.76616 16.379C9.96374 16.6423 12.4989 20.7582 16.5141 22.3415C19.851 23.6574 20.5301 23.3957 21.2543 23.3297C21.9786 23.264 23.5915 22.3744 23.9206 21.452C24.2499 20.5297 24.2499 19.7391 24.1512 19.5739C24.0524 19.4093 23.789 19.3105 23.3939 19.113C22.9988 18.9154 21.0567 17.9598 20.6947 17.8279C20.3325 17.6962 20.0692 17.6305 19.8057 18.026C19.5423 18.4209 18.7858 19.3105 18.5552 19.5739C18.3249 19.838 18.0943 19.8708 17.6994 19.6733C17.3041 19.4751 16.032 19.0584 14.5226 17.7128C13.3483 16.6658 12.5555 15.3727 12.325 14.9772C12.0946 14.5823 12.3004 14.3682 12.4984 14.1714C12.6759 13.9944 12.8936 13.7101 13.0913 13.4795C13.2883 13.2488 13.354 13.0842 13.4857 12.8208C13.6176 12.5571 13.5516 12.3264 13.453 12.1288C13.354 11.9313 12.5864 9.97764 12.2351 9.19662Z" fill="white"/>
        </g>

    </symbol>

    <symbol id="tg"  viewBox="0 0 33 32" fill="none" xmlns="http://www.w3.org/2000/svg">
        <g clip-path="url(#clip0_128_513)">
        <path d="M16.24 0C11.9975 0 7.92499 1.68675 4.92749 4.68625C1.9269 7.68694 0.240821 11.7565 0.23999 16C0.23999 20.2417 1.92749 24.3142 4.92749 27.3137C7.92499 30.3132 11.9975 32 16.24 32C20.4825 32 24.555 30.3132 27.5525 27.3137C30.5525 24.3142 32.24 20.2417 32.24 16C32.24 11.7583 30.5525 7.68575 27.5525 4.68625C24.555 1.68675 20.4825 0 16.24 0Z" fill="#229ED9"/>
        <path d="M7.48249 15.8311C12.1475 13.7991 15.2575 12.4593 16.8125 11.8121C21.2575 9.96381 22.18 9.64281 22.7825 9.63193C22.915 9.62981 23.21 9.66256 23.4025 9.81818C23.5625 9.94943 23.6075 10.1269 23.63 10.2516C23.65 10.3761 23.6775 10.6598 23.655 10.8813C23.415 13.4113 22.3725 19.5508 21.8425 22.3846C21.62 23.5836 21.1775 23.9856 20.75 24.0248C19.82 24.1103 19.115 23.4108 18.215 22.8211C16.8075 21.8978 16.0125 21.3233 14.645 20.4226C13.065 19.3816 14.09 18.8093 14.99 17.8743C15.225 17.6296 19.32 13.9058 19.3975 13.5681C19.4075 13.5258 19.4175 13.3683 19.3225 13.2853C19.23 13.2021 19.0925 13.2306 18.9925 13.2531C18.85 13.2851 16.6025 14.7721 12.2425 17.7138C11.605 18.1523 11.0275 18.3661 10.5075 18.3548C9.93749 18.3426 8.83749 18.0318 8.01999 17.7663C7.01999 17.4406 6.22249 17.2683 6.29249 16.7151C6.32749 16.4271 6.72499 16.1323 7.48249 15.8311Z" fill="white"/>
        </g>

    </symbol>

    <symbol id="cat-icon"  viewBox="0 0 19 19" fill="none" xmlns="http://www.w3.org/2000/svg">
        <path fill-rule="evenodd" clip-rule="evenodd" d="M4.5 1.5H1.5V4.5H4.5V1.5ZM1.5 0.5C1.23478 0.5 0.98043 0.605357 0.792893 0.792893C0.605357 0.98043 0.5 1.23478 0.5 1.5V4.5C0.5 4.76522 0.605357 5.01957 0.792893 5.20711C0.98043 5.39464 1.23478 5.5 1.5 5.5H4.5C4.76522 5.5 5.01957 5.39464 5.20711 5.20711C5.39464 5.01957 5.5 4.76522 5.5 4.5V1.5C5.5 1.23478 5.39464 0.98043 5.20711 0.792893C5.01957 0.605357 4.76522 0.5 4.5 0.5H1.5ZM4.5 8H1.5V11H4.5V8ZM1.5 7C1.23478 7 0.98043 7.10536 0.792893 7.29289C0.605357 7.48043 0.5 7.73478 0.5 8V11C0.5 11.2652 0.605357 11.5196 0.792893 11.7071C0.98043 11.8946 1.23478 12 1.5 12H4.5C4.76522 12 5.01957 11.8946 5.20711 11.7071C5.39464 11.5196 5.5 11.2652 5.5 11V8C5.5 7.73478 5.39464 7.48043 5.20711 7.29289C5.01957 7.10536 4.76522 7 4.5 7H1.5ZM4.5 14.5H1.5V17.5H4.5V14.5ZM1.5 13.5C1.23478 13.5 0.98043 13.6054 0.792893 13.7929C0.605357 13.9804 0.5 14.2348 0.5 14.5V17.5C0.5 17.7652 0.605357 18.0196 0.792893 18.2071C0.98043 18.3946 1.23478 18.5 1.5 18.5H4.5C4.76522 18.5 5.01957 18.3946 5.20711 18.2071C5.39464 18.0196 5.5 17.7652 5.5 17.5V14.5C5.5 14.2348 5.39464 13.9804 5.20711 13.7929C5.01957 13.6054 4.76522 13.5 4.5 13.5H1.5ZM11 1.5H8V4.5H11V1.5ZM8 0.5C7.73478 0.5 7.48043 0.605357 7.29289 0.792893C7.10536 0.98043 7 1.23478 7 1.5V4.5C7 4.76522 7.10536 5.01957 7.29289 5.20711C7.48043 5.39464 7.73478 5.5 8 5.5H11C11.2652 5.5 11.5196 5.39464 11.7071 5.20711C11.8946 5.01957 12 4.76522 12 4.5V1.5C12 1.23478 11.8946 0.98043 11.7071 0.792893C11.5196 0.605357 11.2652 0.5 11 0.5H8ZM11 8H8V11H11V8ZM8 7C7.73478 7 7.48043 7.10536 7.29289 7.29289C7.10536 7.48043 7 7.73478 7 8V11C7 11.2652 7.10536 11.5196 7.29289 11.7071C7.48043 11.8946 7.73478 12 8 12H11C11.2652 12 11.5196 11.8946 11.7071 11.7071C11.8946 11.5196 12 11.2652 12 11V8C12 7.73478 11.8946 7.48043 11.7071 7.29289C11.5196 7.10536 11.2652 7 11 7H8ZM11 14.5H8V17.5H11V14.5ZM8 13.5C7.73478 13.5 7.48043 13.6054 7.29289 13.7929C7.10536 13.9804 7 14.2348 7 14.5V17.5C7 17.7652 7.10536 18.0196 7.29289 18.2071C7.48043 18.3946 7.73478 18.5 8 18.5H11C11.2652 18.5 11.5196 18.3946 11.7071 18.2071C11.8946 18.0196 12 17.7652 12 17.5V14.5C12 14.2348 11.8946 13.9804 11.7071 13.7929C11.5196 13.6054 11.2652 13.5 11 13.5H8ZM17.5 1.5H14.5V4.5H17.5V1.5ZM14.5 0.5C14.2348 0.5 13.9804 0.605357 13.7929 0.792893C13.6054 0.98043 13.5 1.23478 13.5 1.5V4.5C13.5 4.76522 13.6054 5.01957 13.7929 5.20711C13.9804 5.39464 14.2348 5.5 14.5 5.5H17.5C17.7652 5.5 18.0196 5.39464 18.2071 5.20711C18.3946 5.01957 18.5 4.76522 18.5 4.5V1.5C18.5 1.23478 18.3946 0.98043 18.2071 0.792893C18.0196 0.605357 17.7652 0.5 17.5 0.5H14.5ZM17.5 8H14.5V11H17.5V8ZM14.5 7C14.2348 7 13.9804 7.10536 13.7929 7.29289C13.6054 7.48043 13.5 7.73478 13.5 8V11C13.5 11.2652 13.6054 11.5196 13.7929 11.7071C13.9804 11.8946 14.2348 12 14.5 12H17.5C17.7652 12 18.0196 11.8946 18.2071 11.7071C18.3946 11.5196 18.5 11.2652 18.5 11V8C18.5 7.73478 18.3946 7.48043 18.2071 7.29289C18.0196 7.10536 17.7652 7 17.5 7H14.5ZM17.5 14.5H14.5V17.5H17.5V14.5ZM14.5 13.5C14.2348 13.5 13.9804 13.6054 13.7929 13.7929C13.6054 13.9804 13.5 14.2348 13.5 14.5V17.5C13.5 17.7652 13.6054 18.0196 13.7929 18.2071C13.9804 18.3946 14.2348 18.5 14.5 18.5H17.5C17.7652 18.5 18.0196 18.3946 18.2071 18.2071C18.3946 18.0196 18.5 17.7652 18.5 17.5V14.5C18.5 14.2348 18.3946 13.9804 18.2071 13.7929C18.0196 13.6054 17.7652 13.5 17.5 13.5H14.5Z" fill="#1F1F1F"/>
    </symbol>

    <symbol id="search"  viewBox="0 0 21 21" fill="none" xmlns="http://www.w3.org/2000/svg">
        <path d="M20.0306 18.9686L15.3366 14.2755C16.6971 12.6421 17.3755 10.547 17.2307 8.42618C17.0859 6.30531 16.129 4.32191 14.5591 2.88859C12.9892 1.45526 10.9272 0.68235 8.80191 0.73065C6.67666 0.77895 4.65184 1.64474 3.14867 3.14791C1.6455 4.65108 0.779713 6.6759 0.731413 8.80115C0.683113 10.9264 1.45602 12.9885 2.88935 14.5584C4.32268 16.1283 6.30607 17.0852 8.42694 17.23C10.5478 17.3748 12.6428 16.6963 14.2763 15.3358L18.9694 20.0299C19.0391 20.0995 19.1218 20.1548 19.2128 20.1925C19.3039 20.2302 19.4015 20.2497 19.5 20.2497C19.5985 20.2497 19.6961 20.2302 19.7872 20.1925C19.8782 20.1548 19.9609 20.0995 20.0306 20.0299C20.1003 19.9602 20.1556 19.8775 20.1933 19.7864C20.231 19.6954 20.2504 19.5978 20.2504 19.4992C20.2504 19.4007 20.231 19.3031 20.1933 19.2121C20.1556 19.121 20.1003 19.0383 20.0306 18.9686ZM2.25 8.99924C2.25 7.66421 2.64588 6.35917 3.38758 5.24914C4.12928 4.13911 5.18349 3.27394 6.41689 2.76305C7.65029 2.25216 9.00749 2.11849 10.3169 2.37894C11.6262 2.63939 12.829 3.28226 13.773 4.22627C14.717 5.17027 15.3599 6.37301 15.6203 7.68238C15.8808 8.99175 15.7471 10.3489 15.2362 11.5824C14.7253 12.8158 13.8601 13.87 12.7501 14.6117C11.6401 15.3534 10.335 15.7492 9 15.7492C7.2104 15.7473 5.49466 15.0355 4.22922 13.77C2.96378 12.5046 2.25199 10.7888 2.25 8.99924Z" fill="currentColor" stroke="currentColor"/>
    </symbol>

    <symbol id="tel"  viewBox="0 0 24 24" fill="none" xmlns="http://www.w3.org/2000/svg">
        <path fill-rule="evenodd" clip-rule="evenodd" d="M3.28669 9.6422C5.67436 14.8401 9.9167 18.9593 15.1827 21.1929L15.1987 21.1995L16.2174 21.6529C16.8466 21.9335 17.5532 21.9889 18.2184 21.81C18.8837 21.631 19.4671 21.2286 19.8707 20.6702L21.5694 18.3195C21.6193 18.2503 21.6408 18.1646 21.6294 18.08C21.6179 17.9954 21.5745 17.9184 21.508 17.8649L18.5427 15.4715C18.5077 15.4433 18.4674 15.4224 18.4241 15.4102C18.3808 15.398 18.3355 15.3946 18.2909 15.4004C18.2463 15.4061 18.2034 15.4208 18.1646 15.4436C18.1258 15.4663 18.0921 15.4967 18.0654 15.5329L16.9107 17.0902C16.7747 17.2739 16.5798 17.4055 16.3585 17.463C16.1372 17.5205 15.903 17.5005 15.6947 17.4062C11.7494 15.6189 8.58861 12.4581 6.80135 8.51286C6.7071 8.30459 6.68705 8.0703 6.74454 7.84904C6.80204 7.62778 6.93362 7.4329 7.11735 7.29686L8.67335 6.14086C8.70951 6.11414 8.73989 6.08038 8.76266 6.04161C8.78543 6.00284 8.80012 5.95987 8.80585 5.91528C8.81158 5.87069 8.80823 5.8254 8.796 5.78213C8.78377 5.73887 8.76291 5.69852 8.73469 5.66353L6.34269 2.6982C6.28917 2.6317 6.21217 2.58828 6.12758 2.57686C6.04299 2.56545 5.95725 2.58693 5.88802 2.63686L3.52402 4.34353C2.96189 4.74901 2.55749 5.33662 2.37957 6.00651C2.20165 6.6764 2.26117 7.38723 2.54802 8.0182L3.28669 9.64086V9.6422ZM14.3934 23.0302C8.67216 20.6009 4.06349 16.1239 1.46935 10.4755L1.46669 10.4729L0.72802 8.8462C0.249913 7.79478 0.150565 6.61026 0.446854 5.49389C0.743143 4.37752 1.41679 3.39816 2.35335 2.7222L4.71735 1.01553C5.20153 0.66609 5.80124 0.515562 6.39304 0.594932C6.98484 0.674302 7.5237 0.97753 7.89869 1.4422L10.292 4.40886C10.4895 4.65363 10.6355 4.93579 10.7212 5.23841C10.8069 5.54102 10.8305 5.85784 10.7907 6.16981C10.7508 6.48179 10.6483 6.78249 10.4893 7.05385C10.3303 7.3252 10.118 7.56161 9.86535 7.74886L8.97202 8.4102C10.4824 11.3386 12.8676 13.7238 15.796 15.2342L16.4587 14.3409C16.6459 14.0884 16.8823 13.8763 17.1535 13.7174C17.4248 13.5585 17.7253 13.4561 18.0371 13.4162C18.3489 13.3764 18.6656 13.4 18.9681 13.4855C19.2706 13.5711 19.5526 13.7169 19.7974 13.9142L22.764 16.3075C23.2291 16.6826 23.5325 17.2217 23.6119 17.8138C23.6913 18.4059 23.5405 19.0059 23.1907 19.4902L21.492 21.8422C20.8196 22.7728 19.8475 23.4436 18.7388 23.742C17.6302 24.0404 16.4527 23.9482 15.404 23.4809L14.3934 23.0302Z" fill="currentColor"/>
    </symbol>

    <symbol id="mail"  viewBox="0 0 28 23" fill="none" xmlns="http://www.w3.org/2000/svg">
        <path d="M2.66669 22.1673C2.13335 22.1673 1.66669 21.9673 1.26669 21.5673C0.866687 21.1673 0.666687 20.7007 0.666687 20.1673V2.83398C0.666687 2.30065 0.866687 1.83398 1.26669 1.43398C1.66669 1.03398 2.13335 0.833984 2.66669 0.833984H25.3334C25.8667 0.833984 26.3334 1.03398 26.7334 1.43398C27.1334 1.83398 27.3334 2.30065 27.3334 2.83398V20.1673C27.3334 20.7007 27.1334 21.1673 26.7334 21.5673C26.3334 21.9673 25.8667 22.1673 25.3334 22.1673H2.66669ZM14 12.1007L2.66669 4.66732V20.1673H25.3334V4.66732L14 12.1007ZM14 10.1007L25.2 2.83398H2.83335L14 10.1007ZM2.66669 4.66732V2.83398V20.1673V4.66732Z" fill="currentColor"/>
    </symbol>

    <symbol id="basket"  viewBox="0 0 28 29" fill="none" xmlns="http://www.w3.org/2000/svg">
        <path d="M19.7333 15.8327C20.7333 15.8327 21.6133 15.286 22.0666 14.4593L26.84 5.80602C26.9523 5.60392 27.01 5.37598 27.0072 5.14476C27.0045 4.91353 26.9414 4.68704 26.8242 4.4877C26.707 4.28835 26.5398 4.12306 26.3391 4.00817C26.1384 3.89329 25.9112 3.8328 25.68 3.83268H5.94665L4.69331 1.16602H0.333313V3.83268H2.99998L7.79998 13.9527L5.99998 17.206C5.02665 18.9927 6.30665 21.166 8.33331 21.166H24.3333V18.4993H8.33331L9.79998 15.8327H19.7333ZM7.21331 6.49935H23.4133L19.7333 13.166H10.3733L7.21331 6.49935ZM8.33331 22.4993C6.86665 22.4993 5.67998 23.6993 5.67998 25.166C5.67998 26.6327 6.86665 27.8327 8.33331 27.8327C9.79998 27.8327 11 26.6327 11 25.166C11 23.6993 9.79998 22.4993 8.33331 22.4993ZM21.6666 22.4993C20.2 22.4993 19.0133 23.6993 19.0133 25.166C19.0133 26.6327 20.2 27.8327 21.6666 27.8327C23.1333 27.8327 24.3333 26.6327 24.3333 25.166C24.3333 23.6993 23.1333 22.4993 21.6666 22.4993Z" fill="currentColor" stroke="white" stroke-width="0.5"/>
    </symbol>

    <symbol id="wa-white" viewBox="0 0 27 32" fill="none" xmlns="http://www.w3.org/2000/svg">
        <g clip-path="url(#clip0_2_4395)">
        <path d="M16.4004 17.8842C16.4004 17.8842 16.5147 17.7444 16.7432 17.465C16.9717 17.1856 17.1621 17.0458 17.3145 17.0458C17.4668 17.0458 18.0381 17.2994 19.0283 17.8064C20.0186 18.3134 20.543 18.6188 20.6016 18.7225C20.625 18.7801 20.6367 18.8665 20.6367 18.9818C20.6367 19.362 20.5371 19.7999 20.3379 20.2954C20.1504 20.7448 19.7344 21.1222 19.0898 21.4276C18.4453 21.733 17.8477 21.8856 17.2969 21.8856C16.6289 21.8856 15.5156 21.5284 13.957 20.814C12.8086 20.2954 11.8125 19.6155 10.9688 18.7743C10.125 17.9331 9.25781 16.8672 8.36719 15.5766C7.52344 14.3436 7.10742 13.2259 7.11914 12.2233V12.0851C7.1543 11.0364 7.58789 10.1261 8.41992 9.35405C8.70117 9.10053 9.00586 8.97378 9.33399 8.97378C9.4043 8.97378 9.50977 8.98242 9.65039 8.99971C9.79102 9.01699 9.90234 9.02563 9.98438 9.02563C10.207 9.02563 10.3623 9.06309 10.4502 9.13799C10.5381 9.21289 10.6289 9.37133 10.7227 9.61332C10.8164 9.84379 11.0098 10.3508 11.3027 11.1344C11.5957 11.918 11.7422 12.3501 11.7422 12.4308C11.7422 12.6728 11.54 13.0041 11.1357 13.4247C10.7314 13.8453 10.5293 14.1132 10.5293 14.2284C10.5293 14.3091 10.5586 14.3955 10.6172 14.4877C11.0156 15.3289 11.6133 16.1182 12.4102 16.8557C13.0664 17.4664 13.9512 18.0484 15.0645 18.6015C15.2051 18.6822 15.334 18.7225 15.4512 18.7225C15.627 18.7225 15.9434 18.443 16.4004 17.8842ZM13.7461 26.2069C15.2344 26.2069 16.6611 25.9188 18.0264 25.3426C19.3916 24.7665 20.5664 23.9944 21.5508 23.0264C22.5352 22.0585 23.3203 20.9033 23.9063 19.5608C24.4922 18.2183 24.7852 16.8154 24.7852 15.3519C24.7852 13.8885 24.4922 12.4855 23.9063 11.143C23.3203 9.80058 22.5352 8.64536 21.5508 7.67741C20.5664 6.70945 19.3916 5.93739 18.0264 5.36123C16.6611 4.78506 15.2344 4.49698 13.7461 4.49698C12.2578 4.49698 10.8311 4.78506 9.46582 5.36123C8.10059 5.93739 6.92578 6.70945 5.94141 7.67741C4.95703 8.64536 4.17188 9.80058 3.58594 11.143C3 12.4855 2.70703 13.8885 2.70703 15.3519C2.70703 17.6912 3.41016 19.8114 4.81641 21.7128L3.42773 25.7402L7.68164 24.4092C9.5332 25.6077 11.5547 26.2069 13.7461 26.2069ZM8.60449 3.35617C8.60449 3.35617 9.01318 3.18332 9.83057 2.83762C10.648 2.49192 11.9531 2.31907 13.7461 2.31907C15.5391 2.31907 17.2529 2.66477 18.8877 3.35617C20.5225 4.04757 21.9316 4.97519 23.1152 6.13905C24.2988 7.3029 25.2422 8.68858 25.9453 10.2961C26.6484 11.9036 27 13.5889 27 15.3519C27 17.115 26.6484 18.8003 25.9453 20.4078C25.2422 22.0153 24.2988 23.4009 23.1152 24.5648C21.9316 25.7287 20.5225 26.6563 18.8877 27.3477C17.2529 28.0391 15.5391 28.3848 13.7461 28.3848C11.4609 28.3848 9.32227 27.8432 7.33008 26.76L0 29.0762L2.39063 22.0758C1.125 20.0246 0.492188 17.7833 0.492188 15.3519C0.492188 13.5889 0.84375 11.9036 1.54688 10.2961C2.25 8.68858 3.19336 7.3029 4.37695 6.13905C5.56055 4.97519 6.96973 4.04757 8.60449 3.35617Z" fill="currentColor"/>
        </g>
        <defs>
        <clipPath id="clip0_2_4395">
        <rect width="27" height="32" fill="currentColor" transform="matrix(1 0 0 -1 0 32)"/>
        </clipPath>
        </defs>
    </symbol>

    <symbol id="tg-white" viewBox="0 0 32 32" fill="none" xmlns="http://www.w3.org/2000/svg">
        <path d="M31.5001 0.403991C31.893 0.680489 32.0537 1.04915 31.9823 1.50998L27.4109 28.0538C27.3513 28.3879 27.1609 28.6471 26.8394 28.8314C26.6728 28.9236 26.4882 28.9697 26.2859 28.9697C26.1549 28.9697 26.0121 28.9409 25.8573 28.8833L17.768 25.6862L13.4466 30.7842C13.2323 31.0492 12.9406 31.1816 12.5716 31.1816C12.4168 31.1816 12.2859 31.1586 12.1787 31.1125C11.9525 31.0319 11.771 30.8965 11.6341 30.7064C11.4972 30.5163 11.4287 30.3061 11.4287 30.0756V24.0445L26.8573 5.74385L7.76801 21.7289L0.714439 18.9293C0.273963 18.768 0.0358674 18.4512 0.000153072 17.9789C-0.0236564 17.518 0.16682 17.1782 0.571582 16.9593L30.2859 0.369429C30.4644 0.265742 30.6549 0.213899 30.8573 0.213899C31.0954 0.213899 31.3097 0.277263 31.5001 0.403991Z" fill="currentColor"/>
    </symbol>


    <symbol id="home" viewBox="0 0 21 24" fill="none" xmlns="http://www.w3.org/2000/svg">
        <path d="M2.33333 23.6668H18.6667C19.2855 23.6668 19.879 23.4209 20.3166 22.9834C20.7542 22.5458 21 21.9523 21 21.3334V10.8334C21.0009 10.6799 20.9715 10.5277 20.9134 10.3856C20.8553 10.2434 20.7698 10.1141 20.6617 10.0051L11.3283 0.671778C11.1097 0.454485 10.814 0.33252 10.5058 0.33252C10.1976 0.33252 9.90192 0.454485 9.68333 0.671778L0.35 10.0051C0.239764 10.1132 0.152066 10.242 0.0919861 10.3842C0.0319068 10.5264 0.000640792 10.6791 0 10.8334V21.3334C0 21.9523 0.245833 22.5458 0.683417 22.9834C1.121 23.4209 1.71449 23.6668 2.33333 23.6668ZM8.16667 21.3334V15.5001H12.8333V21.3334H8.16667ZM2.33333 11.3118L10.5 3.14511L18.6667 11.3118V21.3334H15.1667V15.5001C15.1667 14.8813 14.9208 14.2878 14.4832 13.8502C14.0457 13.4126 13.4522 13.1668 12.8333 13.1668H8.16667C7.54783 13.1668 6.95434 13.4126 6.51675 13.8502C6.07917 14.2878 5.83333 14.8813 5.83333 15.5001V21.3334H2.33333V11.3118Z" fill="currentColor"/>
    </symbol>

    <symbol id="catalog" viewBox="0 0 21 20" fill="none" xmlns="http://www.w3.org/2000/svg">
        <path d="M7 18.1667V15.8334H21V18.1667H7ZM7 11.1667V8.83342H21V11.1667H7ZM7 4.16675V1.83342H21V4.16675H7ZM2.33334 19.3334C1.69167 19.3334 1.14217 19.1048 0.684835 18.6474C0.227502 18.1901 -0.000775797 17.641 1.98076e-06 17.0001C1.98076e-06 16.3584 0.228669 15.8089 0.686002 15.3516C1.14334 14.8942 1.69245 14.666 2.33334 14.6667C2.975 14.6667 3.5245 14.8954 3.98184 15.3527C4.43917 15.8101 4.66745 16.3592 4.66667 17.0001C4.66667 17.6417 4.438 18.1912 3.98067 18.6486C3.52334 19.1059 2.97422 19.3342 2.33334 19.3334ZM2.33334 12.3334C1.69167 12.3334 1.14217 12.1047 0.684835 11.6474C0.227502 11.1901 -0.000775797 10.641 1.98076e-06 10.0001C1.98076e-06 9.35842 0.228669 8.80892 0.686002 8.35158C1.14334 7.89425 1.69245 7.66597 2.33334 7.66675C2.975 7.66675 3.5245 7.89542 3.98184 8.35275C4.43917 8.81008 4.66745 9.35919 4.66667 10.0001C4.66667 10.6417 4.438 11.1913 3.98067 11.6486C3.52334 12.1059 2.97422 12.3342 2.33334 12.3334ZM2.33334 5.33342C1.69167 5.33342 1.14217 5.10475 0.684835 4.64742C0.227502 4.19008 -0.000775797 3.64097 1.98076e-06 3.00008C1.98076e-06 2.35842 0.228669 1.80892 0.686002 1.35158C1.14334 0.89425 1.69245 0.665972 2.33334 0.66675C2.975 0.66675 3.5245 0.895416 3.98184 1.35275C4.43917 1.81008 4.66745 2.35919 4.66667 3.00008C4.66667 3.64175 4.438 4.19125 3.98067 4.64858C3.52334 5.10592 2.97422 5.33419 2.33334 5.33342Z" fill="currentColor"/>
    </symbol>

    <symbol id="basket-mob" viewBox="0 0 27 26" fill="none" xmlns="http://www.w3.org/2000/svg">
        <path d="M18.9376 14.2502C19.8751 14.2502 20.7001 13.7377 21.1251 12.9627L25.6001 4.85024C25.7054 4.66078 25.7595 4.44708 25.7569 4.23031C25.7543 4.01354 25.6951 3.80121 25.5853 3.61432C25.4754 3.42743 25.3186 3.27247 25.1305 3.16477C24.9424 3.05706 24.7294 3.00035 24.5126 3.00024H6.01258L4.83758 0.500244H0.750084V3.00024H3.25008L7.75008 12.4877L6.06258 15.5377C5.15008 17.2127 6.35008 19.2502 8.25008 19.2502H23.2501V16.7502H8.25008L9.62508 14.2502H18.9376ZM7.20008 5.50024H22.3876L18.9376 11.7502H10.1626L7.20008 5.50024ZM8.25008 20.5002C6.87508 20.5002 5.76258 21.6252 5.76258 23.0002C5.76258 24.3752 6.87508 25.5002 8.25008 25.5002C9.62508 25.5002 10.7501 24.3752 10.7501 23.0002C10.7501 21.6252 9.62508 20.5002 8.25008 20.5002ZM20.7501 20.5002C19.3751 20.5002 18.2626 21.6252 18.2626 23.0002C18.2626 24.3752 19.3751 25.5002 20.7501 25.5002C22.1251 25.5002 23.2501 24.3752 23.2501 23.0002C23.2501 21.6252 22.1251 20.5002 20.7501 20.5002Z" fill="currentColor" stroke="white" stroke-width="0.625"/>
    </symbol>

    <symbol id="contacts" viewBox="0 0 29 28" fill="none" xmlns="http://www.w3.org/2000/svg">
        <path d="M23.25 1.75H7.5C7.03587 1.75 6.59075 1.93437 6.26256 2.26256C5.93437 2.59075 5.75 3.03587 5.75 3.5V7H4V8.75H5.75V13.125H4V14.875H5.75V19.25H4V21H5.75V24.5C5.75 24.9641 5.93437 25.4092 6.26256 25.7374C6.59075 26.0656 7.03587 26.25 7.5 26.25H23.25C23.7141 26.25 24.1592 26.0656 24.4874 25.7374C24.8156 25.4092 25 24.9641 25 24.5V3.5C25 3.03587 24.8156 2.59075 24.4874 2.26256C24.1592 1.93437 23.7141 1.75 23.25 1.75ZM23.25 24.5H7.5V21H9.25V19.25H7.5V14.875H9.25V13.125H7.5V8.75H9.25V7H7.5V3.5H23.25V24.5Z" fill="currentColor"/>
        <path d="M12.75 7H19.75V8.75H12.75V7ZM12.75 13.125H19.75V14.875H12.75V13.125ZM12.75 19.25H19.75V21H12.75V19.25Z" fill="currentColor"/>
    </symbol>

    <symbol id="more" viewBox="0 0 29 28" fill="none" xmlns="http://www.w3.org/2000/svg">
        <path d="M8.66667 14.5832C8.82138 14.5832 8.96975 14.5217 9.07915 14.4123C9.18854 14.3029 9.25 14.1545 9.25 13.9998C9.25 13.8451 9.18854 13.6968 9.07915 13.5874C8.96975 13.478 8.82138 13.4165 8.66667 13.4165C8.51196 13.4165 8.36359 13.478 8.25419 13.5874C8.14479 13.6968 8.08334 13.8451 8.08334 13.9998C8.08334 14.1545 8.14479 14.3029 8.25419 14.4123C8.36359 14.5217 8.51196 14.5832 8.66667 14.5832ZM14.5 14.5832C14.6547 14.5832 14.8031 14.5217 14.9125 14.4123C15.0219 14.3029 15.0833 14.1545 15.0833 13.9998C15.0833 13.8451 15.0219 13.6968 14.9125 13.5874C14.8031 13.478 14.6547 13.4165 14.5 13.4165C14.3453 13.4165 14.1969 13.478 14.0875 13.5874C13.9781 13.6968 13.9167 13.8451 13.9167 13.9998C13.9167 14.1545 13.9781 14.3029 14.0875 14.4123C14.1969 14.5217 14.3453 14.5832 14.5 14.5832ZM20.3333 14.5832C20.488 14.5832 20.6364 14.5217 20.7458 14.4123C20.8552 14.3029 20.9167 14.1545 20.9167 13.9998C20.9167 13.8451 20.8552 13.6968 20.7458 13.5874C20.6364 13.478 20.488 13.4165 20.3333 13.4165C20.1786 13.4165 20.0303 13.478 19.9209 13.5874C19.8115 13.6968 19.75 13.8451 19.75 13.9998C19.75 14.1545 19.8115 14.3029 19.9209 14.4123C20.0303 14.5217 20.1786 14.5832 20.3333 14.5832Z" fill="currentColor" stroke="currentColor" stroke-width="2" stroke-linecap="round" stroke-linejoin="round"/>
        <path d="M14.5 25.6666C20.9435 25.6666 26.1667 20.4434 26.1667 13.9999C26.1667 7.55642 20.9435 2.33325 14.5 2.33325C8.0565 2.33325 2.83334 7.55642 2.83334 13.9999C2.83334 20.4434 8.0565 25.6666 14.5 25.6666Z" stroke="currentColor" stroke-width="2" stroke-linecap="round" stroke-linejoin="round"/>
    </symbol>


    <symbol id="arr" viewBox="0 0 26 16" fill="none" xmlns="http://www.w3.org/2000/svg">
        <path d="M2.58334 13.1667L13 2.75L23.4167 13.1667" stroke="#374AA4" stroke-width="5" stroke-linecap="round" stroke-linejoin="round"/>
    </symbol>

    <symbol id="date" viewBox="0 0 20 20" fill="none" xmlns="http://www.w3.org/2000/svg">
        <path d="M4.16667 18.3333C3.70833 18.3333 3.31583 18.17 2.98917 17.8433C2.6625 17.5166 2.49945 17.1244 2.5 16.6666V4.99996C2.5 4.54163 2.66333 4.14913 2.99 3.82246C3.31667 3.4958 3.70889 3.33274 4.16667 3.3333H5V2.49996C5 2.26385 5.08 2.0658 5.24 1.9058C5.4 1.7458 5.59778 1.66607 5.83334 1.66663C6.06945 1.66663 6.2675 1.74663 6.4275 1.90663C6.5875 2.06663 6.66722 2.26441 6.66667 2.49996V3.3333H13.3333V2.49996C13.3333 2.26385 13.4133 2.0658 13.5733 1.9058C13.7333 1.7458 13.9311 1.66607 14.1667 1.66663C14.4028 1.66663 14.6008 1.74663 14.7608 1.90663C14.9208 2.06663 15.0006 2.26441 15 2.49996V3.3333H15.8333C16.2917 3.3333 16.6842 3.49663 17.0108 3.8233C17.3375 4.14996 17.5006 4.54218 17.5 4.99996V16.6666C17.5 17.125 17.3367 17.5175 17.01 17.8441C16.6833 18.1708 16.2911 18.3339 15.8333 18.3333H4.16667ZM4.16667 16.6666H15.8333V8.3333H4.16667V16.6666ZM10 11.6666C9.76389 11.6666 9.56583 11.5866 9.40584 11.4266C9.24583 11.2666 9.16611 11.0689 9.16667 10.8333C9.16667 10.5972 9.24667 10.3991 9.40667 10.2391C9.56667 10.0791 9.76445 9.99941 10 9.99996C10.2361 9.99996 10.4342 10.08 10.5942 10.24C10.7542 10.4 10.8339 10.5977 10.8333 10.8333C10.8333 11.0694 10.7533 11.2675 10.5933 11.4275C10.4333 11.5875 10.2356 11.6672 10 11.6666ZM6.66667 11.6666C6.43056 11.6666 6.2325 11.5866 6.0725 11.4266C5.9125 11.2666 5.83278 11.0689 5.83334 10.8333C5.83334 10.5972 5.91334 10.3991 6.07334 10.2391C6.23334 10.0791 6.43111 9.99941 6.66667 9.99996C6.90278 9.99996 7.10084 10.08 7.26084 10.24C7.42084 10.4 7.50056 10.5977 7.5 10.8333C7.5 11.0694 7.42 11.2675 7.26 11.4275C7.1 11.5875 6.90222 11.6672 6.66667 11.6666ZM13.3333 11.6666C13.0972 11.6666 12.8992 11.5866 12.7392 11.4266C12.5792 11.2666 12.4994 11.0689 12.5 10.8333C12.5 10.5972 12.58 10.3991 12.74 10.2391C12.9 10.0791 13.0978 9.99941 13.3333 9.99996C13.5694 9.99996 13.7675 10.08 13.9275 10.24C14.0875 10.4 14.1672 10.5977 14.1667 10.8333C14.1667 11.0694 14.0867 11.2675 13.9267 11.4275C13.7667 11.5875 13.5689 11.6672 13.3333 11.6666ZM10 15C9.76389 15 9.56583 14.92 9.40584 14.76C9.24583 14.6 9.16611 14.4022 9.16667 14.1666C9.16667 13.9305 9.24667 13.7325 9.40667 13.5725C9.56667 13.4125 9.76445 13.3327 10 13.3333C10.2361 13.3333 10.4342 13.4133 10.5942 13.5733C10.7542 13.7333 10.8339 13.9311 10.8333 14.1666C10.8333 14.4027 10.7533 14.6008 10.5933 14.7608C10.4333 14.9208 10.2356 15.0005 10 15ZM6.66667 15C6.43056 15 6.2325 14.92 6.0725 14.76C5.9125 14.6 5.83278 14.4022 5.83334 14.1666C5.83334 13.9305 5.91334 13.7325 6.07334 13.5725C6.23334 13.4125 6.43111 13.3327 6.66667 13.3333C6.90278 13.3333 7.10084 13.4133 7.26084 13.5733C7.42084 13.7333 7.50056 13.9311 7.5 14.1666C7.5 14.4027 7.42 14.6008 7.26 14.7608C7.1 14.9208 6.90222 15.0005 6.66667 15ZM13.3333 15C13.0972 15 12.8992 14.92 12.7392 14.76C12.5792 14.6 12.4994 14.4022 12.5 14.1666C12.5 13.9305 12.58 13.7325 12.74 13.5725C12.9 13.4125 13.0978 13.3327 13.3333 13.3333C13.5694 13.3333 13.7675 13.4133 13.9275 13.5733C14.0875 13.7333 14.1672 13.9311 14.1667 14.1666C14.1667 14.4027 14.0867 14.6008 13.9267 14.7608C13.7667 14.9208 13.5689 15.0005 13.3333 15Z" fill="#FFC700"/>
    </symbol>




</svg>