<svg width="27" height="26" viewBox="0 0 27 26" fill="none" xmlns="http://www.w3.org/2000/svg">
<path d="M18.9376 14.2502C19.8751 14.2502 20.7001 13.7377 21.1251 12.9627L25.6001 4.85024C25.7054 4.66078 25.7595 4.44708 25.7569 4.23031C25.7543 4.01354 25.6951 3.80121 25.5853 3.61432C25.4754 3.42743 25.3186 3.27247 25.1305 3.16477C24.9424 3.05706 24.7294 3.00035 24.5126 3.00024H6.01258L4.83758 0.500244H0.750084V3.00024H3.25008L7.75008 12.4877L6.06258 15.5377C5.15008 17.2127 6.35008 19.2502 8.25008 19.2502H23.2501V16.7502H8.25008L9.62508 14.2502H18.9376ZM7.20008 5.50024H22.3876L18.9376 11.7502H10.1626L7.20008 5.50024ZM8.25008 20.5002C6.87508 20.5002 5.76258 21.6252 5.76258 23.0002C5.76258 24.3752 6.87508 25.5002 8.25008 25.5002C9.62508 25.5002 10.7501 24.3752 10.7501 23.0002C10.7501 21.6252 9.62508 20.5002 8.25008 20.5002ZM20.7501 20.5002C19.3751 20.5002 18.2626 21.6252 18.2626 23.0002C18.2626 24.3752 19.3751 25.5002 20.7501 25.5002C22.1251 25.5002 23.2501 24.3752 23.2501 23.0002C23.2501 21.6252 22.1251 20.5002 20.7501 20.5002Z" fill="#A4A7B7" stroke="white" stroke-width="0.625"/>
</svg>
