<svg width="21" height="20" viewBox="0 0 21 20" fill="none" xmlns="http://www.w3.org/2000/svg">
<path d="M7 18.1667V15.8334H21V18.1667H7ZM7 11.1667V8.83342H21V11.1667H7ZM7 4.16675V1.83342H21V4.16675H7ZM2.33334 19.3334C1.69167 19.3334 1.14217 19.1048 0.684835 18.6474C0.227502 18.1901 -0.000775797 17.641 1.98076e-06 17.0001C1.98076e-06 16.3584 0.228669 15.8089 0.686002 15.3516C1.14334 14.8942 1.69245 14.666 2.33334 14.6667C2.975 14.6667 3.5245 14.8954 3.98184 15.3527C4.43917 15.8101 4.66745 16.3592 4.66667 17.0001C4.66667 17.6417 4.438 18.1912 3.98067 18.6486C3.52334 19.1059 2.97422 19.3342 2.33334 19.3334ZM2.33334 12.3334C1.69167 12.3334 1.14217 12.1047 0.684835 11.6474C0.227502 11.1901 -0.000775797 10.641 1.98076e-06 10.0001C1.98076e-06 9.35842 0.228669 8.80892 0.686002 8.35158C1.14334 7.89425 1.69245 7.66597 2.33334 7.66675C2.975 7.66675 3.5245 7.89542 3.98184 8.35275C4.43917 8.81008 4.66745 9.35919 4.66667 10.0001C4.66667 10.6417 4.438 11.1913 3.98067 11.6486C3.52334 12.1059 2.97422 12.3342 2.33334 12.3334ZM2.33334 5.33342C1.69167 5.33342 1.14217 5.10475 0.684835 4.64742C0.227502 4.19008 -0.000775797 3.64097 1.98076e-06 3.00008C1.98076e-06 2.35842 0.228669 1.80892 0.686002 1.35158C1.14334 0.89425 1.69245 0.665972 2.33334 0.66675C2.975 0.66675 3.5245 0.895416 3.98184 1.35275C4.43917 1.81008 4.66745 2.35919 4.66667 3.00008C4.66667 3.64175 4.438 4.19125 3.98067 4.64858C3.52334 5.10592 2.97422 5.33419 2.33334 5.33342Z" fill="#A4A7B7"/>
</svg>
