<svg width="29" height="28" viewBox="0 0 29 28" fill="none" xmlns="http://www.w3.org/2000/svg">
<path d="M23.25 1.75H7.5C7.03587 1.75 6.59075 1.93437 6.26256 2.26256C5.93437 2.59075 5.75 3.03587 5.75 3.5V7H4V8.75H5.75V13.125H4V14.875H5.75V19.25H4V21H5.75V24.5C5.75 24.9641 5.93437 25.4092 6.26256 25.7374C6.59075 26.0656 7.03587 26.25 7.5 26.25H23.25C23.7141 26.25 24.1592 26.0656 24.4874 25.7374C24.8156 25.4092 25 24.9641 25 24.5V3.5C25 3.03587 24.8156 2.59075 24.4874 2.26256C24.1592 1.93437 23.7141 1.75 23.25 1.75ZM23.25 24.5H7.5V21H9.25V19.25H7.5V14.875H9.25V13.125H7.5V8.75H9.25V7H7.5V3.5H23.25V24.5Z" fill="#A4A7B7"/>
<path d="M12.75 7H19.75V8.75H12.75V7ZM12.75 13.125H19.75V14.875H12.75V13.125ZM12.75 19.25H19.75V21H12.75V19.25Z" fill="#A4A7B7"/>
</svg>
