<svg width="21" height="24" viewBox="0 0 21 24" fill="none" xmlns="http://www.w3.org/2000/svg">
<path d="M2.33333 23.6668H18.6667C19.2855 23.6668 19.879 23.4209 20.3166 22.9834C20.7542 22.5458 21 21.9523 21 21.3334V10.8334C21.0009 10.6799 20.9715 10.5277 20.9134 10.3856C20.8553 10.2434 20.7698 10.1141 20.6617 10.0051L11.3283 0.671778C11.1097 0.454485 10.814 0.33252 10.5058 0.33252C10.1976 0.33252 9.90192 0.454485 9.68333 0.671778L0.35 10.0051C0.239764 10.1132 0.152066 10.242 0.0919861 10.3842C0.0319068 10.5264 0.000640792 10.6791 0 10.8334V21.3334C0 21.9523 0.245833 22.5458 0.683417 22.9834C1.121 23.4209 1.71449 23.6668 2.33333 23.6668ZM8.16667 21.3334V15.5001H12.8333V21.3334H8.16667ZM2.33333 11.3118L10.5 3.14511L18.6667 11.3118V21.3334H15.1667V15.5001C15.1667 14.8813 14.9208 14.2878 14.4832 13.8502C14.0457 13.4126 13.4522 13.1668 12.8333 13.1668H8.16667C7.54783 13.1668 6.95434 13.4126 6.51675 13.8502C6.07917 14.2878 5.83333 14.8813 5.83333 15.5001V21.3334H2.33333V11.3118Z" fill="#A4A7B7"/>
</svg>
