<svg width="29" height="28" viewBox="0 0 29 28" fill="none" xmlns="http://www.w3.org/2000/svg">
<path d="M8.66667 14.5832C8.82138 14.5832 8.96975 14.5217 9.07915 14.4123C9.18854 14.3029 9.25 14.1545 9.25 13.9998C9.25 13.8451 9.18854 13.6968 9.07915 13.5874C8.96975 13.478 8.82138 13.4165 8.66667 13.4165C8.51196 13.4165 8.36359 13.478 8.25419 13.5874C8.14479 13.6968 8.08334 13.8451 8.08334 13.9998C8.08334 14.1545 8.14479 14.3029 8.25419 14.4123C8.36359 14.5217 8.51196 14.5832 8.66667 14.5832ZM14.5 14.5832C14.6547 14.5832 14.8031 14.5217 14.9125 14.4123C15.0219 14.3029 15.0833 14.1545 15.0833 13.9998C15.0833 13.8451 15.0219 13.6968 14.9125 13.5874C14.8031 13.478 14.6547 13.4165 14.5 13.4165C14.3453 13.4165 14.1969 13.478 14.0875 13.5874C13.9781 13.6968 13.9167 13.8451 13.9167 13.9998C13.9167 14.1545 13.9781 14.3029 14.0875 14.4123C14.1969 14.5217 14.3453 14.5832 14.5 14.5832ZM20.3333 14.5832C20.488 14.5832 20.6364 14.5217 20.7458 14.4123C20.8552 14.3029 20.9167 14.1545 20.9167 13.9998C20.9167 13.8451 20.8552 13.6968 20.7458 13.5874C20.6364 13.478 20.488 13.4165 20.3333 13.4165C20.1786 13.4165 20.0303 13.478 19.9209 13.5874C19.8115 13.6968 19.75 13.8451 19.75 13.9998C19.75 14.1545 19.8115 14.3029 19.9209 14.4123C20.0303 14.5217 20.1786 14.5832 20.3333 14.5832Z" fill="#A4A7B7" stroke="#A4A7B7" stroke-width="2" stroke-linecap="round" stroke-linejoin="round"/>
<path d="M14.5 25.6666C20.9435 25.6666 26.1667 20.4434 26.1667 13.9999C26.1667 7.55642 20.9435 2.33325 14.5 2.33325C8.0565 2.33325 2.83334 7.55642 2.83334 13.9999C2.83334 20.4434 8.0565 25.6666 14.5 25.6666Z" stroke="#A4A7B7" stroke-width="2" stroke-linecap="round" stroke-linejoin="round"/>
</svg>
