<svg width="28" height="29" viewBox="0 0 28 29" fill="none" xmlns="http://www.w3.org/2000/svg">
<path d="M19.7333 15.8327C20.7333 15.8327 21.6133 15.286 22.0666 14.4593L26.84 5.80602C26.9523 5.60392 27.01 5.37598 27.0072 5.14476C27.0045 4.91353 26.9414 4.68704 26.8242 4.4877C26.707 4.28835 26.5398 4.12306 26.3391 4.00817C26.1384 3.89329 25.9112 3.8328 25.68 3.83268H5.94665L4.69331 1.16602H0.333313V3.83268H2.99998L7.79998 13.9527L5.99998 17.206C5.02665 18.9927 6.30665 21.166 8.33331 21.166H24.3333V18.4993H8.33331L9.79998 15.8327H19.7333ZM7.21331 6.49935H23.4133L19.7333 13.166H10.3733L7.21331 6.49935ZM8.33331 22.4993C6.86665 22.4993 5.67998 23.6993 5.67998 25.166C5.67998 26.6327 6.86665 27.8327 8.33331 27.8327C9.79998 27.8327 11 26.6327 11 25.166C11 23.6993 9.79998 22.4993 8.33331 22.4993ZM21.6666 22.4993C20.2 22.4993 19.0133 23.6993 19.0133 25.166C19.0133 26.6327 20.2 27.8327 21.6666 27.8327C23.1333 27.8327 24.3333 26.6327 24.3333 25.166C24.3333 23.6993 23.1333 22.4993 21.6666 22.4993Z" fill="#1F1F1F" stroke="white" stroke-width="0.5"/>
</svg>
