<svg width="24" height="24" viewBox="0 0 24 24" fill="none" xmlns="http://www.w3.org/2000/svg">
<path fill-rule="evenodd" clip-rule="evenodd" d="M3.28669 9.6422C5.67436 14.8401 9.9167 18.9593 15.1827 21.1929L15.1987 21.1995L16.2174 21.6529C16.8466 21.9335 17.5532 21.9889 18.2184 21.81C18.8837 21.631 19.4671 21.2286 19.8707 20.6702L21.5694 18.3195C21.6193 18.2503 21.6408 18.1646 21.6294 18.08C21.6179 17.9954 21.5745 17.9184 21.508 17.8649L18.5427 15.4715C18.5077 15.4433 18.4674 15.4224 18.4241 15.4102C18.3808 15.398 18.3355 15.3946 18.2909 15.4004C18.2463 15.4061 18.2034 15.4208 18.1646 15.4436C18.1258 15.4663 18.0921 15.4967 18.0654 15.5329L16.9107 17.0902C16.7747 17.2739 16.5798 17.4055 16.3585 17.463C16.1372 17.5205 15.903 17.5005 15.6947 17.4062C11.7494 15.6189 8.58861 12.4581 6.80135 8.51286C6.7071 8.30459 6.68705 8.0703 6.74454 7.84904C6.80204 7.62778 6.93362 7.4329 7.11735 7.29686L8.67335 6.14086C8.70951 6.11414 8.73989 6.08038 8.76266 6.04161C8.78543 6.00284 8.80012 5.95987 8.80585 5.91528C8.81158 5.87069 8.80823 5.8254 8.796 5.78213C8.78377 5.73887 8.76291 5.69852 8.73469 5.66353L6.34269 2.6982C6.28917 2.6317 6.21217 2.58828 6.12758 2.57686C6.04299 2.56545 5.95725 2.58693 5.88802 2.63686L3.52402 4.34353C2.96189 4.74901 2.55749 5.33662 2.37957 6.00651C2.20165 6.6764 2.26117 7.38723 2.54802 8.0182L3.28669 9.64086V9.6422ZM14.3934 23.0302C8.67216 20.6009 4.06349 16.1239 1.46935 10.4755L1.46669 10.4729L0.72802 8.8462C0.249913 7.79478 0.150565 6.61026 0.446854 5.49389C0.743143 4.37752 1.41679 3.39816 2.35335 2.7222L4.71735 1.01553C5.20153 0.66609 5.80124 0.515562 6.39304 0.594932C6.98484 0.674302 7.5237 0.97753 7.89869 1.4422L10.292 4.40886C10.4895 4.65363 10.6355 4.93579 10.7212 5.23841C10.8069 5.54102 10.8305 5.85784 10.7907 6.16981C10.7508 6.48179 10.6483 6.78249 10.4893 7.05385C10.3303 7.3252 10.118 7.56161 9.86535 7.74886L8.97202 8.4102C10.4824 11.3386 12.8676 13.7238 15.796 15.2342L16.4587 14.3409C16.6459 14.0884 16.8823 13.8763 17.1535 13.7174C17.4248 13.5585 17.7253 13.4561 18.0371 13.4162C18.3489 13.3764 18.6656 13.4 18.9681 13.4855C19.2706 13.5711 19.5526 13.7169 19.7974 13.9142L22.764 16.3075C23.2291 16.6826 23.5325 17.2217 23.6119 17.8138C23.6913 18.4059 23.5405 19.0059 23.1907 19.4902L21.492 21.8422C20.8196 22.7728 19.8475 23.4436 18.7388 23.742C17.6302 24.0404 16.4527 23.9482 15.404 23.4809L14.3934 23.0302Z" fill="#1F1F1F"/>
</svg>
