<svg width="19" height="19" viewBox="0 0 19 19" fill="none" xmlns="http://www.w3.org/2000/svg">
<path fill-rule="evenodd" clip-rule="evenodd" d="M4.5 1.5H1.5V4.5H4.5V1.5ZM1.5 0.5C1.23478 0.5 0.98043 0.605357 0.792893 0.792893C0.605357 0.98043 0.5 1.23478 0.5 1.5V4.5C0.5 4.76522 0.605357 5.01957 0.792893 5.20711C0.98043 5.39464 1.23478 5.5 1.5 5.5H4.5C4.76522 5.5 5.01957 5.39464 5.20711 5.20711C5.39464 5.01957 5.5 4.76522 5.5 4.5V1.5C5.5 1.23478 5.39464 0.98043 5.20711 0.792893C5.01957 0.605357 4.76522 0.5 4.5 0.5H1.5ZM4.5 8H1.5V11H4.5V8ZM1.5 7C1.23478 7 0.98043 7.10536 0.792893 7.29289C0.605357 7.48043 0.5 7.73478 0.5 8V11C0.5 11.2652 0.605357 11.5196 0.792893 11.7071C0.98043 11.8946 1.23478 12 1.5 12H4.5C4.76522 12 5.01957 11.8946 5.20711 11.7071C5.39464 11.5196 5.5 11.2652 5.5 11V8C5.5 7.73478 5.39464 7.48043 5.20711 7.29289C5.01957 7.10536 4.76522 7 4.5 7H1.5ZM4.5 14.5H1.5V17.5H4.5V14.5ZM1.5 13.5C1.23478 13.5 0.98043 13.6054 0.792893 13.7929C0.605357 13.9804 0.5 14.2348 0.5 14.5V17.5C0.5 17.7652 0.605357 18.0196 0.792893 18.2071C0.98043 18.3946 1.23478 18.5 1.5 18.5H4.5C4.76522 18.5 5.01957 18.3946 5.20711 18.2071C5.39464 18.0196 5.5 17.7652 5.5 17.5V14.5C5.5 14.2348 5.39464 13.9804 5.20711 13.7929C5.01957 13.6054 4.76522 13.5 4.5 13.5H1.5ZM11 1.5H8V4.5H11V1.5ZM8 0.5C7.73478 0.5 7.48043 0.605357 7.29289 0.792893C7.10536 0.98043 7 1.23478 7 1.5V4.5C7 4.76522 7.10536 5.01957 7.29289 5.20711C7.48043 5.39464 7.73478 5.5 8 5.5H11C11.2652 5.5 11.5196 5.39464 11.7071 5.20711C11.8946 5.01957 12 4.76522 12 4.5V1.5C12 1.23478 11.8946 0.98043 11.7071 0.792893C11.5196 0.605357 11.2652 0.5 11 0.5H8ZM11 8H8V11H11V8ZM8 7C7.73478 7 7.48043 7.10536 7.29289 7.29289C7.10536 7.48043 7 7.73478 7 8V11C7 11.2652 7.10536 11.5196 7.29289 11.7071C7.48043 11.8946 7.73478 12 8 12H11C11.2652 12 11.5196 11.8946 11.7071 11.7071C11.8946 11.5196 12 11.2652 12 11V8C12 7.73478 11.8946 7.48043 11.7071 7.29289C11.5196 7.10536 11.2652 7 11 7H8ZM11 14.5H8V17.5H11V14.5ZM8 13.5C7.73478 13.5 7.48043 13.6054 7.29289 13.7929C7.10536 13.9804 7 14.2348 7 14.5V17.5C7 17.7652 7.10536 18.0196 7.29289 18.2071C7.48043 18.3946 7.73478 18.5 8 18.5H11C11.2652 18.5 11.5196 18.3946 11.7071 18.2071C11.8946 18.0196 12 17.7652 12 17.5V14.5C12 14.2348 11.8946 13.9804 11.7071 13.7929C11.5196 13.6054 11.2652 13.5 11 13.5H8ZM17.5 1.5H14.5V4.5H17.5V1.5ZM14.5 0.5C14.2348 0.5 13.9804 0.605357 13.7929 0.792893C13.6054 0.98043 13.5 1.23478 13.5 1.5V4.5C13.5 4.76522 13.6054 5.01957 13.7929 5.20711C13.9804 5.39464 14.2348 5.5 14.5 5.5H17.5C17.7652 5.5 18.0196 5.39464 18.2071 5.20711C18.3946 5.01957 18.5 4.76522 18.5 4.5V1.5C18.5 1.23478 18.3946 0.98043 18.2071 0.792893C18.0196 0.605357 17.7652 0.5 17.5 0.5H14.5ZM17.5 8H14.5V11H17.5V8ZM14.5 7C14.2348 7 13.9804 7.10536 13.7929 7.29289C13.6054 7.48043 13.5 7.73478 13.5 8V11C13.5 11.2652 13.6054 11.5196 13.7929 11.7071C13.9804 11.8946 14.2348 12 14.5 12H17.5C17.7652 12 18.0196 11.8946 18.2071 11.7071C18.3946 11.5196 18.5 11.2652 18.5 11V8C18.5 7.73478 18.3946 7.48043 18.2071 7.29289C18.0196 7.10536 17.7652 7 17.5 7H14.5ZM17.5 14.5H14.5V17.5H17.5V14.5ZM14.5 13.5C14.2348 13.5 13.9804 13.6054 13.7929 13.7929C13.6054 13.9804 13.5 14.2348 13.5 14.5V17.5C13.5 17.7652 13.6054 18.0196 13.7929 18.2071C13.9804 18.3946 14.2348 18.5 14.5 18.5H17.5C17.7652 18.5 18.0196 18.3946 18.2071 18.2071C18.3946 18.0196 18.5 17.7652 18.5 17.5V14.5C18.5 14.2348 18.3946 13.9804 18.2071 13.7929C18.0196 13.6054 17.7652 13.5 17.5 13.5H14.5Z" fill="#1F1F1F"/>
</svg>
