<svg width="24" height="25" viewBox="0 0 24 25" fill="none" xmlns="http://www.w3.org/2000/svg">
<g clip-path="url(#clip0_1_652)">
<path d="M11.99 0.5C6.47 0.5 2 4.98 2 10.5C2 16.02 6.47 20.5 11.99 20.5C17.52 20.5 22 16.02 22 10.5C22 4.98 17.52 0.5 11.99 0.5ZM12 18.5C7.58 18.5 4 14.92 4 10.5C4 6.08 7.58 2.5 12 2.5C16.42 2.5 20 6.08 20 10.5C20 14.92 16.42 18.5 12 18.5ZM11.78 5.5H11.72C11.32 5.5 11 5.82 11 6.22V10.94C11 11.29 11.18 11.62 11.49 11.8L15.64 14.29C15.98 14.49 16.42 14.39 16.62 14.05C16.6702 13.969 16.7036 13.8788 16.7182 13.7846C16.7328 13.6905 16.7283 13.5943 16.705 13.502C16.6817 13.4096 16.64 13.3229 16.5824 13.2469C16.5249 13.171 16.4526 13.1074 16.37 13.06L12.5 10.76V6.22C12.5 5.82 12.18 5.5 11.78 5.5Z" fill="#1F1F1F"/>
</g>
<defs>
<clipPath id="clip0_1_652">
<rect width="24" height="24" fill="white" transform="translate(0 0.5)"/>
</clipPath>
</defs>
</svg>
