<svg width="27" height="32" viewBox="0 0 27 32" fill="none" xmlns="http://www.w3.org/2000/svg">
<g clip-path="url(#clip0_2_4395)">
<path d="M16.4004 17.8842C16.4004 17.8842 16.5147 17.7444 16.7432 17.465C16.9717 17.1856 17.1621 17.0458 17.3145 17.0458C17.4668 17.0458 18.0381 17.2994 19.0283 17.8064C20.0186 18.3134 20.543 18.6188 20.6016 18.7225C20.625 18.7801 20.6367 18.8665 20.6367 18.9818C20.6367 19.362 20.5371 19.7999 20.3379 20.2954C20.1504 20.7448 19.7344 21.1222 19.0898 21.4276C18.4453 21.733 17.8477 21.8856 17.2969 21.8856C16.6289 21.8856 15.5156 21.5284 13.957 20.814C12.8086 20.2954 11.8125 19.6155 10.9688 18.7743C10.125 17.9331 9.25781 16.8672 8.36719 15.5766C7.52344 14.3436 7.10742 13.2259 7.11914 12.2233V12.0851C7.1543 11.0364 7.58789 10.1261 8.41992 9.35405C8.70117 9.10053 9.00586 8.97378 9.33399 8.97378C9.4043 8.97378 9.50977 8.98242 9.65039 8.99971C9.79102 9.01699 9.90234 9.02563 9.98438 9.02563C10.207 9.02563 10.3623 9.06309 10.4502 9.13799C10.5381 9.21289 10.6289 9.37133 10.7227 9.61332C10.8164 9.84379 11.0098 10.3508 11.3027 11.1344C11.5957 11.918 11.7422 12.3501 11.7422 12.4308C11.7422 12.6728 11.54 13.0041 11.1357 13.4247C10.7314 13.8453 10.5293 14.1132 10.5293 14.2284C10.5293 14.3091 10.5586 14.3955 10.6172 14.4877C11.0156 15.3289 11.6133 16.1182 12.4102 16.8557C13.0664 17.4664 13.9512 18.0484 15.0645 18.6015C15.2051 18.6822 15.334 18.7225 15.4512 18.7225C15.627 18.7225 15.9434 18.443 16.4004 17.8842ZM13.7461 26.2069C15.2344 26.2069 16.6611 25.9188 18.0264 25.3426C19.3916 24.7665 20.5664 23.9944 21.5508 23.0264C22.5352 22.0585 23.3203 20.9033 23.9063 19.5608C24.4922 18.2183 24.7852 16.8154 24.7852 15.3519C24.7852 13.8885 24.4922 12.4855 23.9063 11.143C23.3203 9.80058 22.5352 8.64536 21.5508 7.67741C20.5664 6.70945 19.3916 5.93739 18.0264 5.36123C16.6611 4.78506 15.2344 4.49698 13.7461 4.49698C12.2578 4.49698 10.8311 4.78506 9.46582 5.36123C8.10059 5.93739 6.92578 6.70945 5.94141 7.67741C4.95703 8.64536 4.17188 9.80058 3.58594 11.143C3 12.4855 2.70703 13.8885 2.70703 15.3519C2.70703 17.6912 3.41016 19.8114 4.81641 21.7128L3.42773 25.7402L7.68164 24.4092C9.5332 25.6077 11.5547 26.2069 13.7461 26.2069ZM8.60449 3.35617C8.60449 3.35617 9.01318 3.18332 9.83057 2.83762C10.648 2.49192 11.9531 2.31907 13.7461 2.31907C15.5391 2.31907 17.2529 2.66477 18.8877 3.35617C20.5225 4.04757 21.9316 4.97519 23.1152 6.13905C24.2988 7.3029 25.2422 8.68858 25.9453 10.2961C26.6484 11.9036 27 13.5889 27 15.3519C27 17.115 26.6484 18.8003 25.9453 20.4078C25.2422 22.0153 24.2988 23.4009 23.1152 24.5648C21.9316 25.7287 20.5225 26.6563 18.8877 27.3477C17.2529 28.0391 15.5391 28.3848 13.7461 28.3848C11.4609 28.3848 9.32227 27.8432 7.33008 26.76L0 29.0762L2.39063 22.0758C1.125 20.0246 0.492188 17.7833 0.492188 15.3519C0.492188 13.5889 0.84375 11.9036 1.54688 10.2961C2.25 8.68858 3.19336 7.3029 4.37695 6.13905C5.56055 4.97519 6.96973 4.04757 8.60449 3.35617Z" fill="white"/>
</g>
<defs>
<clipPath id="clip0_2_4395">
<rect width="27" height="32" fill="white" transform="matrix(1 0 0 -1 0 32)"/>
</clipPath>
</defs>
</svg>
