<svg width="24" height="25" viewBox="0 0 24 25" fill="none" xmlns="http://www.w3.org/2000/svg">
<path fill-rule="evenodd" clip-rule="evenodd" d="M4.48303 3.7933C5.70003 2.5833 7.70403 2.7983 8.72303 4.1603L9.98503 5.8443C10.815 6.9523 10.741 8.5003 9.75603 9.4793L9.51803 9.7173C9.49115 9.81722 9.48841 9.9221 9.51003 10.0233C9.57303 10.4313 9.91403 11.2953 11.342 12.7153C12.77 14.1353 13.64 14.4753 14.054 14.5393C14.1582 14.5615 14.2662 14.5584 14.369 14.5303L14.777 14.1243C15.653 13.2543 16.997 13.0913 18.081 13.6803L19.991 14.7203C21.628 15.6083 22.041 17.8323 20.701 19.1653L19.28 20.5773C18.832 21.0223 18.23 21.3933 17.496 21.4623C15.686 21.6313 11.469 21.4153 7.03603 17.0083C2.89903 12.8943 2.10503 9.3063 2.00403 7.5383C1.95403 6.6443 2.37603 5.8883 2.91403 5.3543L4.48303 3.7933ZM7.52303 5.0593C7.01603 4.3823 6.07203 4.3283 5.54003 4.8573L3.97003 6.4173C3.64003 6.7453 3.48203 7.1073 3.50203 7.4533C3.58203 8.8583 4.22203 12.0953 8.09403 15.9453C12.156 19.9833 15.907 20.1043 17.357 19.9683C17.653 19.9413 17.947 19.7873 18.222 19.5143L19.642 18.1013C20.22 17.5273 20.093 16.4813 19.275 16.0373L17.365 14.9983C16.837 14.7123 16.219 14.8063 15.835 15.1883L15.38 15.6413L14.85 15.1093C15.38 15.6413 15.378 15.6423 15.378 15.6423L15.377 15.6443L15.374 15.6473L15.367 15.6533L15.352 15.6673C15.3095 15.7061 15.264 15.7415 15.216 15.7733C15.136 15.8263 15.03 15.8853 14.897 15.9343C14.627 16.0353 14.269 16.0893 13.827 16.0213C12.96 15.8883 11.811 15.2973 10.284 13.7793C8.75803 12.2613 8.16203 11.1193 8.02803 10.2533C7.95903 9.8113 8.01403 9.4533 8.11603 9.1833C8.17259 9.03156 8.25293 8.88979 8.35403 8.7633L8.38603 8.7283L8.40003 8.7133L8.40603 8.7073L8.40903 8.7043L8.41103 8.7023L8.69903 8.4163C9.12703 7.9893 9.18703 7.2823 8.78403 6.7433L7.52303 5.0593Z" fill="#1F1F1F"/>
<path d="M2.00403 7.5383C2.10503 9.3063 2.89903 12.8943 7.03603 17.0083C11.469 21.4153 15.686 21.6313 17.496 21.4623C18.23 21.3933 18.832 21.0223 19.28 20.5773L20.701 19.1653C22.041 17.8323 21.628 15.6083 19.991 14.7203L18.081 13.6803C16.997 13.0913 15.653 13.2543 14.777 14.1243L14.369 14.5303C14.2662 14.5584 14.1582 14.5615 14.054 14.5393C13.64 14.4753 12.77 14.1353 11.342 12.7153C9.91403 11.2953 9.57303 10.4313 9.51003 10.0233C9.48841 9.9221 9.49115 9.81722 9.51803 9.7173L9.75603 9.4793C10.741 8.5003 10.815 6.9523 9.98503 5.8443L8.72303 4.1603C7.70403 2.7983 5.70003 2.5833 4.48303 3.7933L2.91403 5.3543C2.37603 5.8883 1.95403 6.6443 2.00403 7.5383ZM2.00403 7.5383L2.75303 7.4963M8.41103 8.7023L8.40903 8.7043L8.40603 8.7073L8.40003 8.7133L8.38603 8.7283L8.35403 8.7633C8.25293 8.88979 8.17259 9.03156 8.11603 9.1833C8.01403 9.4533 7.95903 9.8113 8.02803 10.2533C8.16203 11.1193 8.75803 12.2613 10.284 13.7793C11.811 15.2973 12.96 15.8883 13.827 16.0213C14.269 16.0893 14.627 16.0353 14.897 15.9343C15.03 15.8853 15.136 15.8263 15.216 15.7733C15.264 15.7415 15.3095 15.7061 15.352 15.6673L15.367 15.6533L15.374 15.6473L15.377 15.6443L15.378 15.6423C15.378 15.6423 15.38 15.6413 14.85 15.1093L15.38 15.6413L15.835 15.1883C16.219 14.8063 16.837 14.7123 17.365 14.9983L19.275 16.0373C20.093 16.4813 20.22 17.5273 19.642 18.1013L18.222 19.5143C17.947 19.7873 17.653 19.9413 17.357 19.9683C15.907 20.1043 12.156 19.9833 8.09403 15.9453C4.22203 12.0953 3.58203 8.8583 3.50203 7.4533C3.48203 7.1073 3.64003 6.7453 3.97003 6.4173L5.54003 4.8573C6.07203 4.3283 7.01603 4.3823 7.52303 5.0593L8.78403 6.7433C9.18703 7.2823 9.12703 7.9893 8.69903 8.4163L8.41103 8.7023ZM8.41103 8.7023L8.94103 9.2323" stroke="#1F1F1F"/>
</svg>
