<svg width="24" height="25" viewBox="0 0 24 25" fill="none" xmlns="http://www.w3.org/2000/svg">
<path d="M18 8L12.6782 22.7373C12.6423 22.8157 12.5846 22.8821 12.512 22.9287C12.4395 22.9752 12.3551 23 12.2688 23C12.1826 23 12.0982 22.9752 12.0256 22.9287C11.9531 22.8821 11.8954 22.8157 11.8595 22.7373L8.99388 17.0061L3.26271 14.1405C3.18432 14.1046 3.1179 14.0469 3.07133 13.9744C3.02476 13.9018 3 13.8174 3 13.7312C3 13.6449 3.02476 13.5605 3.07133 13.488C3.1179 13.4154 3.18432 13.3577 3.26271 13.3218L18 8Z" stroke="#1F1F1F" stroke-width="2" stroke-linecap="round" stroke-linejoin="round"/>
</svg>
