<svg width="24" height="25" viewBox="0 0 24 25" fill="none" xmlns="http://www.w3.org/2000/svg">
<path d="M3.5 19C3.1 19 2.75 18.85 2.45 18.55C2.15 18.25 2 17.9 2 17.5V4.5C2 4.1 2.15 3.75 2.45 3.45C2.75 3.15 3.1 3 3.5 3H20.5C20.9 3 21.25 3.15 21.55 3.45C21.85 3.75 22 4.1 22 4.5V17.5C22 17.9 21.85 18.25 21.55 18.55C21.25 18.85 20.9 19 20.5 19H3.5ZM12 11.45L3.5 5.875V17.5H20.5V5.875L12 11.45ZM12 9.95L20.4 4.5H3.625L12 9.95ZM3.5 5.875V4.5V17.5V5.875Z" fill="#1F1F1F"/>
<path d="M3.5 5.875L12 11.45L20.5 5.875V17.5H3.5M3.5 5.875V17.5M3.5 5.875V4.5V17.5M3.5 19C3.1 19 2.75 18.85 2.45 18.55C2.15 18.25 2 17.9 2 17.5V4.5C2 4.1 2.15 3.75 2.45 3.45C2.75 3.15 3.1 3 3.5 3H20.5C20.9 3 21.25 3.15 21.55 3.45C21.85 3.75 22 4.1 22 4.5V17.5C22 17.9 21.85 18.25 21.55 18.55C21.25 18.85 20.9 19 20.5 19H3.5ZM12 9.95L20.4 4.5H3.625L12 9.95Z" stroke="#1F1F1F" stroke-width="0.8"/>
</svg>
