<svg width="20" height="20" viewBox="0 0 20 20" fill="none" xmlns="http://www.w3.org/2000/svg">
<path d="M4.16667 18.3333C3.70833 18.3333 3.31583 18.17 2.98917 17.8433C2.6625 17.5166 2.49945 17.1244 2.5 16.6666V4.99996C2.5 4.54163 2.66333 4.14913 2.99 3.82246C3.31667 3.4958 3.70889 3.33274 4.16667 3.3333H5V2.49996C5 2.26385 5.08 2.0658 5.24 1.9058C5.4 1.7458 5.59778 1.66607 5.83334 1.66663C6.06945 1.66663 6.2675 1.74663 6.4275 1.90663C6.5875 2.06663 6.66722 2.26441 6.66667 2.49996V3.3333H13.3333V2.49996C13.3333 2.26385 13.4133 2.0658 13.5733 1.9058C13.7333 1.7458 13.9311 1.66607 14.1667 1.66663C14.4028 1.66663 14.6008 1.74663 14.7608 1.90663C14.9208 2.06663 15.0006 2.26441 15 2.49996V3.3333H15.8333C16.2917 3.3333 16.6842 3.49663 17.0108 3.8233C17.3375 4.14996 17.5006 4.54218 17.5 4.99996V16.6666C17.5 17.125 17.3367 17.5175 17.01 17.8441C16.6833 18.1708 16.2911 18.3339 15.8333 18.3333H4.16667ZM4.16667 16.6666H15.8333V8.3333H4.16667V16.6666ZM10 11.6666C9.76389 11.6666 9.56583 11.5866 9.40584 11.4266C9.24583 11.2666 9.16611 11.0689 9.16667 10.8333C9.16667 10.5972 9.24667 10.3991 9.40667 10.2391C9.56667 10.0791 9.76445 9.99941 10 9.99996C10.2361 9.99996 10.4342 10.08 10.5942 10.24C10.7542 10.4 10.8339 10.5977 10.8333 10.8333C10.8333 11.0694 10.7533 11.2675 10.5933 11.4275C10.4333 11.5875 10.2356 11.6672 10 11.6666ZM6.66667 11.6666C6.43056 11.6666 6.2325 11.5866 6.0725 11.4266C5.9125 11.2666 5.83278 11.0689 5.83334 10.8333C5.83334 10.5972 5.91334 10.3991 6.07334 10.2391C6.23334 10.0791 6.43111 9.99941 6.66667 9.99996C6.90278 9.99996 7.10084 10.08 7.26084 10.24C7.42084 10.4 7.50056 10.5977 7.5 10.8333C7.5 11.0694 7.42 11.2675 7.26 11.4275C7.1 11.5875 6.90222 11.6672 6.66667 11.6666ZM13.3333 11.6666C13.0972 11.6666 12.8992 11.5866 12.7392 11.4266C12.5792 11.2666 12.4994 11.0689 12.5 10.8333C12.5 10.5972 12.58 10.3991 12.74 10.2391C12.9 10.0791 13.0978 9.99941 13.3333 9.99996C13.5694 9.99996 13.7675 10.08 13.9275 10.24C14.0875 10.4 14.1672 10.5977 14.1667 10.8333C14.1667 11.0694 14.0867 11.2675 13.9267 11.4275C13.7667 11.5875 13.5689 11.6672 13.3333 11.6666ZM10 15C9.76389 15 9.56583 14.92 9.40584 14.76C9.24583 14.6 9.16611 14.4022 9.16667 14.1666C9.16667 13.9305 9.24667 13.7325 9.40667 13.5725C9.56667 13.4125 9.76445 13.3327 10 13.3333C10.2361 13.3333 10.4342 13.4133 10.5942 13.5733C10.7542 13.7333 10.8339 13.9311 10.8333 14.1666C10.8333 14.4027 10.7533 14.6008 10.5933 14.7608C10.4333 14.9208 10.2356 15.0005 10 15ZM6.66667 15C6.43056 15 6.2325 14.92 6.0725 14.76C5.9125 14.6 5.83278 14.4022 5.83334 14.1666C5.83334 13.9305 5.91334 13.7325 6.07334 13.5725C6.23334 13.4125 6.43111 13.3327 6.66667 13.3333C6.90278 13.3333 7.10084 13.4133 7.26084 13.5733C7.42084 13.7333 7.50056 13.9311 7.5 14.1666C7.5 14.4027 7.42 14.6008 7.26 14.7608C7.1 14.9208 6.90222 15.0005 6.66667 15ZM13.3333 15C13.0972 15 12.8992 14.92 12.7392 14.76C12.5792 14.6 12.4994 14.4022 12.5 14.1666C12.5 13.9305 12.58 13.7325 12.74 13.5725C12.9 13.4125 13.0978 13.3327 13.3333 13.3333C13.5694 13.3333 13.7675 13.4133 13.9275 13.5733C14.0875 13.7333 14.1672 13.9311 14.1667 14.1666C14.1667 14.4027 14.0867 14.6008 13.9267 14.7608C13.7667 14.9208 13.5689 15.0005 13.3333 15Z" fill="#FFC700"/>
</svg>
