<svg width="61" height="61" viewBox="0 0 61 61" fill="none" xmlns="http://www.w3.org/2000/svg">
<rect width="61" height="61" rx="30.5" fill="#1FAF38"/>
<path fill-rule="evenodd" clip-rule="evenodd" d="M19.7734 27.0999C22.7276 33.8925 27.9767 39.2755 34.4923 42.1943L34.5121 42.203L35.7725 42.7954C36.551 43.162 37.4253 43.2346 38.2484 43.0007C39.0716 42.7669 39.7935 42.2409 40.2928 41.5112L42.3945 38.4394C42.4563 38.3489 42.4829 38.2369 42.4688 38.1264C42.4546 38.0158 42.4009 37.9152 42.3186 37.8453L38.6496 34.7177C38.6063 34.6808 38.5564 34.6535 38.5029 34.6375C38.4494 34.6216 38.3933 34.6172 38.3381 34.6247C38.283 34.6322 38.2298 34.6514 38.1818 34.6811C38.1339 34.7109 38.0921 34.7506 38.059 34.7978L36.6304 36.8329C36.462 37.073 36.2209 37.245 35.9471 37.3201C35.6734 37.3952 35.3835 37.369 35.1258 37.2459C30.2443 34.9103 26.3335 30.7798 24.1221 25.6241C24.0055 25.352 23.9806 25.0458 24.0518 24.7567C24.1229 24.4675 24.2857 24.2129 24.5131 24.0351L26.4383 22.5244C26.483 22.4895 26.5206 22.4454 26.5488 22.3947C26.577 22.3441 26.5951 22.2879 26.6022 22.2296C26.6093 22.1714 26.6052 22.1122 26.5901 22.0557C26.5749 21.9991 26.5491 21.9464 26.5142 21.9007L23.5546 18.0256C23.4883 17.9387 23.3931 17.882 23.2884 17.867C23.1838 17.8521 23.0777 17.8802 22.992 17.9454L20.067 20.1757C19.3715 20.7056 18.8712 21.4735 18.651 22.3489C18.4309 23.2243 18.5045 24.1532 18.8594 24.9777L19.7734 27.0982V27.0999ZM33.5157 44.5953C26.4368 41.4206 20.7345 35.5702 17.5248 28.1889L17.5215 28.1855L16.6075 26.0597C16.016 24.6858 15.8931 23.1378 16.2597 21.679C16.6263 20.2201 17.4598 18.9403 18.6186 18.057L21.5435 15.8267C22.1426 15.3701 22.8846 15.1733 23.6169 15.2771C24.3491 15.3808 25.0158 15.777 25.4798 16.3843L28.4411 20.2611C28.6855 20.5809 28.8661 20.9497 28.9721 21.3451C29.0781 21.7406 29.1074 22.1546 29.0581 22.5623C29.0088 22.97 28.8819 23.3629 28.6852 23.7175C28.4884 24.0721 28.2258 24.3811 27.9132 24.6258L26.8078 25.49C28.6766 29.3169 31.6278 32.4338 35.2512 34.4075L36.0711 33.2401C36.3028 32.9102 36.5952 32.633 36.9308 32.4254C37.2664 32.2178 37.6383 32.0839 38.0241 32.0318C38.4099 31.9797 38.8017 32.0105 39.176 32.1224C39.5502 32.2342 39.8992 32.4247 40.202 32.6826L43.8727 35.8101C44.4481 36.3002 44.8236 37.0047 44.9218 37.7785C45.02 38.5523 44.8335 39.3364 44.4006 39.9692L42.2988 43.0428C41.4669 44.2589 40.264 45.1355 38.8923 45.5254C37.5206 45.9154 36.0637 45.7949 34.7662 45.1842L33.5157 44.5953Z" fill="white"/>
</svg>
