<svg width="32" height="32" viewBox="0 0 32 32" fill="none" xmlns="http://www.w3.org/2000/svg">
<path d="M31.5001 0.403991C31.893 0.680489 32.0537 1.04915 31.9823 1.50998L27.4109 28.0538C27.3513 28.3879 27.1609 28.6471 26.8394 28.8314C26.6728 28.9236 26.4882 28.9697 26.2859 28.9697C26.1549 28.9697 26.0121 28.9409 25.8573 28.8833L17.768 25.6862L13.4466 30.7842C13.2323 31.0492 12.9406 31.1816 12.5716 31.1816C12.4168 31.1816 12.2859 31.1586 12.1787 31.1125C11.9525 31.0319 11.771 30.8965 11.6341 30.7064C11.4972 30.5163 11.4287 30.3061 11.4287 30.0756V24.0445L26.8573 5.74385L7.76801 21.7289L0.714439 18.9293C0.273963 18.768 0.0358674 18.4512 0.000153072 17.9789C-0.0236564 17.518 0.16682 17.1782 0.571582 16.9593L30.2859 0.369429C30.4644 0.265742 30.6549 0.213899 30.8573 0.213899C31.0954 0.213899 31.3097 0.277263 31.5001 0.403991Z" fill="white"/>
</svg>
